# xmcd
#
# Track frame offsets: 
#        150
#        13040
#        25440
#        37010
#        49987
#        66782
#        82877
#        99120
#        117132
#        130970
#        149872
#
# Disc length: 2193 seconds
#
# Revision: 3
# Processed by: cddbd v1.5.2PL0 Copyright (c) Steve Scherf et al.
# Submitted via: ExactAudioCopy v0.95b4
#
DISCID=97088f0b
DTITLE=The Kentucky Headhunters - Stompin' Grounds
DYEAR=1997
DGENRE=Country
TTITLE0=Neck Of The Woods
TTITLE1=Singin' The Blues
TTITLE2=Party Zone
TTITLE3=Private Part
TTITLE4=Kentucky Wildcat
TTITLE5=Runnin' Water
TTITLE6=Farmer's Daughter
TTITLE7=See Rock City
TTITLE8=Southern Belle
TTITLE9=Country Best
TTITLE10=Mr. Know-It-All
EXTD=
EXTT0=
EXTT1=
EXTT2=
EXTT3=
EXTT4=
EXTT5=
EXTT6=
EXTT7=
EXTT8=
EXTT9=
EXTT10=
PLAYORDER=
